<svg width="42" height="38" viewBox="0 0 42 38" fill="none" xmlns="http://www.w3.org/2000/svg">
<path d="M21 17.4167C22.3845 17.4167 23.7378 17.0452 24.889 16.3493C26.0401 15.6534 26.9373 14.6643 27.4672 13.507C27.997 12.3497 28.1356 11.0763 27.8655 9.84776C27.5954 8.61922 26.9287 7.49073 25.9497 6.60499C24.9708 5.71926 23.7235 5.11607 22.3656 4.8717C21.0078 4.62732 19.6003 4.75274 18.3212 5.2321C17.0421 5.71145 15.9489 6.52321 15.1797 7.56472C14.4105 8.60624 14 9.83072 14 11.0833C14 12.763 14.7375 14.3739 16.0503 15.5617C17.363 16.7494 19.1435 17.4167 21 17.4167Z" fill="#FFD601"/>
<path d="M31.5 33.25C31.9641 33.25 32.4093 33.0832 32.7374 32.7863C33.0656 32.4894 33.25 32.0866 33.25 31.6667C33.25 28.7272 31.9594 25.9081 29.6621 23.8296C27.3647 21.7511 24.2489 20.5834 21 20.5834C17.7511 20.5834 14.6353 21.7511 12.3379 23.8296C10.0406 25.9081 8.75 28.7272 8.75 31.6667C8.75 32.0866 8.93437 32.4894 9.26256 32.7863C9.59075 33.0832 10.0359 33.25 10.5 33.25H31.5Z" fill="#FFD601"/>
</svg>
